<svg xmlns="http://www.w3.org/2000/svg" viewBox="0 0 410 404"><path fill="#41D1FF" d="M255.153 12.687L230.41 57.908l-23.942-45.22h48.685z"/><path fill="#BD34FE" d="M404.082 80.194L215.259 388.572c-4.674 7.534-15.435 7.497-20.056-.07L5.797 80.188c-4.854-7.795 2.593-17.435 11.409-15.229l187.816 46.733a12 12 0 0 0 5.68 0l181.698-46.62c8.788-2.256 16.258 7.315 11.45 15.14z"/><path fill="#FFF" d="M287.832 84.827l-72.57 178.71c-.308.758-1.388.757-1.694-.001L140.02 84.826c-.295-.727.447-1.431 1.126-1.139l37.59 16.27a.999.999 0 0 0 1.318-.502L199.79 72.39a.999.999 0 0 1 1.327-.512l33.01 15.875a1 1 0 0 0 1.34-.513l7.237-17.31c.28-.67 1.147-.73 1.506-.105l43.85 76.17c.364.632-.216 1.39-.938 1.145l-36.723-12.65a1 1 0 0 0-1.255.563z"/></svg>